<svg width="210" height="109" viewBox="0 0 210 109" fill="none" xmlns="http://www.w3.org/2000/svg">
<rect x="0.712402" y="8.45184" width="209" height="100" rx="4" fill="#0F1314"/>
<rect x="7.7124" y="0.451843" width="40" height="40" rx="4" fill="#1C351A"/>
<path fill-rule="evenodd" clip-rule="evenodd" d="M13.7124 11.298C13.7124 8.62154 15.8821 6.45184 18.5586 6.45184H24.4816C25.6712 6.45184 26.6355 7.41615 26.6355 8.60569V17.2211C26.6355 18.4106 25.6712 19.3749 24.4816 19.3749H15.8662C14.6767 19.3749 13.7124 18.4106 13.7124 17.2211V11.298ZM18.5586 9.68261C17.6664 9.68261 16.9432 10.4058 16.9432 11.298V16.1441H23.4047V9.68261H18.5586Z" fill="#81FA76"/>
<path fill-rule="evenodd" clip-rule="evenodd" d="M13.7124 29.6057C13.7124 32.2821 15.8821 34.4518 18.5586 34.4518H24.4816C25.6712 34.4518 26.6355 33.4875 26.6355 32.298V23.6826C26.6355 22.4931 25.6712 21.5287 24.4816 21.5287H15.8662C14.6767 21.5287 13.7124 22.4931 13.7124 23.6826V29.6057ZM18.5586 31.221C17.6664 31.221 16.9432 30.4978 16.9432 29.6057V24.7595H23.4047V31.221H18.5586Z" fill="#81FA76"/>
<path fill-rule="evenodd" clip-rule="evenodd" d="M36.8662 34.4518C39.5427 34.4518 41.7124 32.2821 41.7124 29.6057V23.6826C41.7124 22.4931 40.7481 21.5287 39.5585 21.5287H30.9432C29.7536 21.5287 28.7893 22.4931 28.7893 23.6826V32.298C28.7893 33.4875 29.7536 34.4518 30.9432 34.4518H36.8662ZM38.4816 29.6057C38.4816 30.4978 37.7584 31.221 36.8662 31.221H32.0201V24.7595H38.4816V29.6057Z" fill="#81FA76"/>
<path d="M35.2509 6.45184C36.143 6.45184 36.8663 7.17507 36.8663 8.06723V11.298H40.097C40.9892 11.298 41.7124 12.0212 41.7124 12.9134C41.7124 13.8055 40.9892 14.5288 40.097 14.5288H36.8663V17.7595C36.8663 18.6517 36.143 19.3749 35.2509 19.3749C34.3587 19.3749 33.6355 18.6517 33.6355 17.7595V14.5288H30.4047C29.5126 14.5288 28.7893 13.8055 28.7893 12.9134C28.7893 12.0212 29.5126 11.298 30.4047 11.298H33.6355V8.06723C33.6355 7.17507 34.3587 6.45184 35.2509 6.45184Z" fill="#81FA76"/>
<rect x="87.7124" y="75.4518" width="115" height="10" rx="4" fill="#2E3A3C"/>
<rect x="87.7124" y="90.4518" width="115" height="10" rx="4" fill="#2E3A3C"/>
<rect x="62.7124" y="75.4518" width="16" height="10" rx="4" fill="#2E3A3C"/>
<rect x="62.7124" y="90.4518" width="16" height="10" rx="4" fill="#2E3A3C"/>
<rect x="7.7124" y="45.4518" width="40" height="10" rx="4" fill="#2E3A3C"/>
<rect x="7.7124" y="60.4518" width="40" height="38" rx="4" fill="#2E3A3C"/>
<rect x="62.7124" y="30.4518" width="140" height="39" rx="4" fill="#2E3A3C"/>
<rect x="72.7124" y="40.4518" width="3" height="22" fill="#81FA76"/>
<rect x="78.7124" y="48.4518" width="3" height="14" fill="#81FA76"/>
<rect x="84.7124" y="55.4518" width="3" height="7" fill="#81FA76"/>
<rect x="90.7124" y="58.4518" width="3" height="4" fill="#81FA76"/>
<rect x="96.7124" y="50.4518" width="3" height="12" fill="#81FA76"/>
<rect x="102.712" y="55.4518" width="3" height="7" fill="#81FA76"/>
<rect x="108.712" y="59.4518" width="3" height="3" fill="#81FA76"/>
<rect x="114.712" y="57.4518" width="3" height="5" fill="#81FA76"/>
<rect x="120.712" y="57.4518" width="3" height="5" fill="#81FA76"/>
<rect x="126.712" y="58.4518" width="3" height="4" fill="#81FA76"/>
<rect x="132.712" y="51.4518" width="3" height="11" fill="#81FA76"/>
<rect x="138.712" y="55.4518" width="3" height="7" fill="#81FA76"/>
<rect x="144.712" y="48.4518" width="3" height="14" fill="#81FA76"/>
<rect x="150.712" y="58.4518" width="3" height="4" fill="#81FA76"/>
<rect x="156.712" y="53.4518" width="3" height="9" fill="#81FA76"/>
<rect x="162.712" y="40.4518" width="3" height="22" fill="#81FA76"/>
<rect x="168.712" y="45.4518" width="3" height="17" fill="#81FA76"/>
<rect x="174.712" y="50.4518" width="3" height="12" fill="#81FA76"/>
<rect x="180.712" y="59.4518" width="3" height="3" fill="#81FA76"/>
<rect x="186.712" y="56.4518" width="3" height="6" fill="#81FA76"/>
<rect x="192.712" y="52.4518" width="3" height="10" fill="#81FA76"/>
<rect x="62.7124" y="19.4518" width="61" height="5" rx="2.5" fill="#2E3A3C"/>
</svg>
